<?xml version="1.0" encoding="UTF-8" standalone="no"?>
<!DOCTYPE svg PUBLIC "-//W3C//DTD SVG 20010904//EN"
              "http://www.w3.org/TR/2001/REC-SVG-20010904/DTD/svg10.dtd">

<svg xmlns="http://www.w3.org/2000/svg"
     width="300" height="300"
     viewBox="0 0 300 300">
  <path id="boxs"
        fill="black" stroke-width="10" stroke="black"
        d="M 100.00,125.00
           C 100.00,125.00 100.00,175.00 100.00,175.00
             100.00,175.00 300.00,175.00 300.00,175.00
             300.00,175.00 300.00,125.00 300.00,125.00
             300.00,125.00 100.00,125.00 100.00,125.00 Z
           M 296.00,129.00
           C 296.00,129.00 296.00,171.00 296.00,171.00
             296.00,171.00 104.00,171.00 104.00,171.00
             104.00,171.00 104.00,129.00 104.00,129.00
             104.00,129.00 296.00,129.00 296.00,129.00 Z
           M 100.00,225.00
           C 100.00,225.00 100.00,275.00 100.00,275.00
             100.00,275.00 300.00,275.00 300.00,275.00
             300.00,275.00 300.00,225.00 300.00,225.00
             300.00,225.00 100.00,225.00 100.00,225.00 Z
           M 296.00,229.00
           C 296.00,229.00 296.00,271.00 296.00,271.00
             296.00,271.00 104.00,271.00 104.00,271.00
             104.00,271.00 104.00,229.00 104.00,229.00
             104.00,229.00 296.00,229.00 296.00,229.00 Z
           M 100.00,25.00
           C 100.00,25.00 100.00,75.00 100.00,75.00
             100.00,75.00 300.00,75.00 300.00,75.00
             300.00,75.00 300.00,25.00 300.00,25.00
             300.00,25.00 100.00,25.00 100.00,25.00 Z
           M 296.00,29.00
           C 296.00,29.00 296.00,71.00 296.00,71.00
             296.00,71.00 104.00,71.00 104.00,71.00
             104.00,71.00 104.00,29.00 104.00,29.00
             104.00,29.00 296.00,29.00 296.00,29.00 Z
           M 0.00,110.00
           C 0.00,110.00 0.00,190.00 0.00,190.00
             0.00,190.00 80.00,190.00 80.00,190.00
             80.00,190.00 80.00,110.00 80.00,110.00
             80.00,110.00 0.00,110.00 0.00,110.00 Z
           M 76.00,114.00
           C 76.00,114.00 76.00,186.00 76.00,186.00
             76.00,186.00 4.00,186.00 4.00,186.00
             4.00,186.00 4.00,114.00 4.00,114.00
             4.00,114.00 76.00,114.00 76.00,114.00 Z
           M 0.00,210.00
           C 0.00,210.00 0.00,290.00 0.00,290.00
             0.00,290.00 80.00,290.00 80.00,290.00
             80.00,290.00 80.00,210.00 80.00,210.00
             80.00,210.00 0.00,210.00 0.00,210.00 Z
           M 76.00,214.00
           C 76.00,214.00 76.00,286.00 76.00,286.00
             76.00,286.00 4.00,286.00 4.00,286.00
             4.00,286.00 4.00,214.00 4.00,214.00
             4.00,214.00 76.00,214.00 76.00,214.00 Z
           M 0.00,10.00
           C 0.00,10.00 0.00,90.00 0.00,90.00
             0.00,90.00 80.00,90.00 80.00,90.00
             80.00,90.00 80.00,10.00 80.00,10.00
             80.00,10.00 0.00,10.00 0.00,10.00 Z
           M 76.00,14.00
           C 76.00,14.00 76.00,86.00 76.00,86.00
             76.00,86.00 4.00,86.00 4.00,86.00
             4.00,86.00 4.00,14.00 4.00,14.00
             4.00,14.00 76.00,14.00 76.00,14.00 Z" />
  <path id="ticks"
        fill="#4fbf4f" stroke="#4fbf4f" stroke-width="10"
        d="M 10.00,50.00
           C 10.00,50.00 17.88,50.00 20.00,50.00
             25.00,50.00 35.00,70.00 35.00,75.00
             45.00,75.00 90.00,5.00 90.00,0.00
             90.00,0.00 90.00,5.00 90.00,5.00
             90.00,10.00 45.00,86.00 35.00,86.00
             35.00,74.88 20.00,50.00 10.00,50.00 Z
           M 10.00,250.00
           C 10.00,250.00 17.88,250.00 20.00,250.00
             25.00,250.00 35.00,270.00 35.00,275.00
             45.00,275.00 90.00,205.00 90.00,200.00
             90.00,200.00 90.00,205.00 90.00,205.00
             90.00,210.00 45.00,286.00 35.00,286.00
             35.00,274.88 20.00,250.00 10.00,250.00 Z" />

</svg>
